<svg xmlns="http://www.w3.org/2000/svg" version="1.1" xmlns:xlink="http://www.w3.org/1999/xlink" xmlns:svgjs="http://svgjs.dev/svgjs" width="1500" height="937" viewBox="0 0 1500 937"><g transform="matrix(1,0,0,1,0,0)"><svg viewBox="0 0 512 320" data-background-color="#94f9b6" preserveAspectRatio="xMidYMid meet" height="937" width="1500" xmlns="http://www.w3.org/2000/svg" xmlns:xlink="http://www.w3.org/1999/xlink"><g id="tight-bounds" transform="matrix(1,0,0,1,0,0)"><svg viewBox="0 0 512 320" height="320" width="512"><g><svg></svg></g><g><svg viewBox="0 0 512 320" height="320" width="512"><g><path transform="translate(256,160) scale(160,160)" d="M-1 0c0-0.552 0.448-1 1-1 0.552 0 1 0.448 1 1 0 0.552-0.448 1-1 1-0.552 0-1-0.448-1-1z" fill="#061d02" fill-rule="nonzero" stroke="none" stroke-width="1" stroke-linecap="butt" stroke-linejoin="miter" stroke-miterlimit="10" stroke-dasharray="" stroke-dashoffset="0" font-family="none" font-weight="none" font-size="none" text-anchor="none" style="mix-blend-mode: normal" data-fill-palette-color="tertiary"></path></g><g transform="matrix(1,0,0,1,153.6,89.42598608551496)"><svg viewBox="0 0 204.8 141.14802782897007" height="141.14802782897007" width="204.8"><g><svg viewBox="0 0 204.8 141.14802782897007" height="141.14802782897007" width="204.8"><g transform="matrix(1,0,0,1,0,71.99253520980166)"><svg viewBox="0 0 204.8 69.15549261916841" height="69.15549261916841" width="204.8"><g id="textblocktransform"><svg viewBox="0 0 204.8 69.15549261916841" height="69.15549261916841" width="204.8" id="textblock"><g><svg viewBox="0 0 204.8 46.399256144407474" height="46.399256144407474" width="204.8"><g transform="matrix(1,0,0,1,0,0)"><svg width="204.8" viewBox="0.4926491553077516 -19.75204794464843 207.90101501935843 47.10181237986162" height="46.399256144407474" data-palette-color="#c5fcf3"><path d="M6.048 15.055v0c-0.967-0.254-1.842-0.611-2.625-1.071-0.774-0.465-1.41-1.101-1.908-1.907-0.494-0.798-0.809-1.856-0.946-3.174-0.145-1.313-0.085-2.962 0.181-4.946 0.261-1.992 0.755-4.375 1.483-7.148v0c0.858-3.269 1.765-5.967 2.723-8.094 0.959-2.133 1.951-3.81 2.974-5.03 1.028-1.212 2.052-2.081 3.072-2.605 1.022-0.531 2.018-0.808 2.988-0.829 0.97-0.021 1.875 0.078 2.713 0.298v0c1.296 0.34 2.23 0.733 2.802 1.18 0.574 0.44 0.927 0.905 1.061 1.395 0.129 0.482 0.138 0.932 0.028 1.351v0c-0.135 0.516-0.337 0.997-0.606 1.443-0.275 0.445-0.537 0.81-0.784 1.097v0c-0.117-0.21-0.302-0.424-0.556-0.642-0.251-0.224-0.553-0.452-0.906-0.682-0.353-0.23-0.755-0.405-1.207-0.523v0c-0.587-0.154-1.189-0.198-1.805-0.133-0.622 0.057-1.267 0.312-1.937 0.764-0.668 0.445-1.327 1.144-1.977 2.097-0.65 0.953-1.296 2.234-1.939 3.843-0.649 1.608-1.287 3.605-1.913 5.991v0c-0.619 2.36-1.019 4.319-1.201 5.878-0.188 1.557-0.203 2.797-0.045 3.72 0.157 0.924 0.474 1.62 0.95 2.09 0.483 0.471 1.079 0.8 1.789 0.986v0c0.877 0.23 1.718 0.32 2.524 0.269 0.804-0.044 1.474-0.168 2.01-0.372v0c0.068 0.397 0.108 0.838 0.118 1.323 0.011 0.485-0.048 0.97-0.174 1.454v0c-0.179 0.684-0.58 1.226-1.203 1.628-0.624 0.408-1.428 0.649-2.412 0.721-0.989 0.065-2.08-0.06-3.272-0.372zM21.834 18.731v0c-1.271-0.274-2.356-0.668-3.254-1.182-0.897-0.521-1.577-1.291-2.039-2.312-0.467-1.028-0.673-2.416-0.617-4.163 0.049-1.749 0.37-3.995 0.961-6.739v0c0.963-4.471 2.381-7.555 4.254-9.251 1.868-1.705 4.076-2.283 6.623-1.734v0c1.734 0.373 3.088 1.034 4.065 1.98 0.969 0.945 1.527 2.392 1.673 4.34 0.148 1.941-0.137 4.577-0.854 7.907v0c-0.993 4.608-2.381 7.759-4.165 9.455-1.785 1.702-4.001 2.268-6.647 1.699zM22.794 14.989v0c0.587 0.126 1.151 0.009 1.692-0.352 0.535-0.362 1.083-1.165 1.644-2.408 0.562-1.25 1.115-3.132 1.656-5.647v0c0.542-2.516 0.852-4.43 0.931-5.743 0.078-1.313-0.051-2.231-0.389-2.754-0.332-0.515-0.841-0.846-1.525-0.993v0c-0.619-0.133-1.216-0.023-1.79 0.33-0.569 0.362-1.127 1.165-1.675 2.411-0.541 1.247-1.08 3.112-1.615 5.596v0c-0.423 1.962-0.699 3.559-0.828 4.793-0.131 1.24-0.136 2.18-0.014 2.82 0.121 0.64 0.347 1.098 0.676 1.373 0.336 0.277 0.748 0.468 1.237 0.574zM33.813 20.624v0l3.914-23.527c0.681-0.191 1.476-0.339 2.385-0.444 0.915-0.098 1.873-0.148 2.874-0.151 1.002-0.009 1.93 0.058 2.785 0.2v0c1.749 0.291 3.093 0.727 4.03 1.309 0.931 0.581 1.55 1.387 1.858 2.418 0.302 1.03 0.318 2.354 0.049 3.972v0l-2.961 17.795c-0.049 0.296-0.159 0.487-0.328 0.574-0.164 0.094-0.572 0.104-1.222 0.03-0.65-0.074-1.731-0.237-3.244-0.489v0l2.879-17.302c0.246-1.48 0.261-2.542 0.043-3.186-0.216-0.651-0.85-1.064-1.902-1.239v0c-0.46-0.077-0.991-0.097-1.591-0.062-0.594 0.036-1.147 0.15-1.659 0.342v0l-3.264 19.62c-0.049 0.296-0.149 0.489-0.299 0.579-0.151 0.096-0.542 0.109-1.172 0.038-0.63-0.071-1.688-0.23-3.175-0.477zM58.617 24.763v0c-1.728-0.2-3.141-0.575-4.239-1.125-1.098-0.543-1.594-1.278-1.486-2.205v0c0.043-0.371 0.15-0.771 0.32-1.202 0.165-0.437 0.425-0.887 0.78-1.349v0c0.656 0.479 1.37 0.863 2.142 1.154 0.772 0.291 1.588 0.486 2.449 0.585v0c1.166 0.135 2.084-0.001 2.755-0.406 0.665-0.413 1.048-1.05 1.147-1.911v0c0.066-0.57 0.016-1.156-0.149-1.758-0.164-0.61-0.558-1.269-1.181-1.979v0l-4.133-4.817c-0.952-1.05-1.568-2.047-1.849-2.992-0.281-0.938-0.375-1.805-0.283-2.6v0c0.135-1.166 0.535-2.163 1.202-2.992 0.673-0.828 1.645-1.43 2.917-1.807 1.265-0.377 2.861-0.454 4.788-0.231v0c1.728 0.2 3.02 0.521 3.875 0.962 0.856 0.435 1.407 0.891 1.654 1.369 0.246 0.485 0.348 0.909 0.306 1.273v0c-0.092 0.795-0.495 1.523-1.21 2.186v0c-0.678-0.521-1.38-0.925-2.105-1.21-0.725-0.285-1.535-0.48-2.429-0.583v0c-1.06-0.123-1.908-0.036-2.546 0.259-0.646 0.301-1.009 0.799-1.089 1.495v0c-0.042 0.364 0.022 0.768 0.192 1.21 0.171 0.436 0.597 1.046 1.278 1.829v0l3.894 4.286c0.903 1.185 1.512 2.249 1.825 3.191 0.307 0.942 0.388 2.045 0.241 3.309v0c-0.257 2.219-1.195 3.858-2.814 4.92-1.619 1.054-3.703 1.434-6.252 1.139zM77.513 26.507v0c-1.436-0.106-2.482-0.476-3.137-1.113-0.656-0.63-1.052-1.511-1.189-2.644-0.131-1.133-0.142-2.43-0.035-3.893v0l1.051-14.301-3.301-0.243c0.086-1.164 0.165-2.02 0.239-2.569 0.073-0.543 0.193-0.892 0.358-1.047 0.158-0.155 0.387-0.222 0.686-0.2v0l2.304 0.169 0.551-7.5c0.037-0.499 0.185-0.839 0.446-1.02 0.267-0.181 0.729-0.274 1.384-0.279 0.648 0.001 1.591 0.047 2.828 0.138v0l-0.661 8.995 4.797 0.353c-0.086 1.164-0.165 2.02-0.239 2.569-0.073 0.543-0.176 0.893-0.308 1.05-0.125 0.158-0.337 0.226-0.637 0.204v0l-3.899-0.286-1.047 14.251c-0.044 0.598-0.062 1.165-0.055 1.701 0.014 0.536 0.116 0.971 0.305 1.306 0.196 0.329 0.561 0.512 1.093 0.551v0c0.565 0.042 1.061 0.021 1.488-0.061 0.428-0.089 0.899-0.231 1.415-0.427v0c0.047 0.271 0.09 0.592 0.13 0.962 0.04 0.371 0.042 0.792 0.007 1.264v0c-0.049 0.665-0.319 1.153-0.809 1.464-0.491 0.318-1.077 0.512-1.758 0.583-0.673 0.064-1.342 0.072-2.007 0.023zM85.533 26.482v0l0.896-23.283c0.965-0.63 2.038-1.133 3.22-1.508 1.189-0.375 2.432-0.537 3.731-0.487v0c1.332 0.051 2.235 0.273 2.707 0.665 0.472 0.385 0.694 0.961 0.664 1.727v0c-0.01 0.266-0.058 0.648-0.144 1.145-0.086 0.497-0.238 0.995-0.458 1.494v0c-0.333-0.186-0.681-0.326-1.044-0.421-0.363-0.101-0.744-0.159-1.145-0.174v0c-0.466-0.018-0.962 0.046-1.488 0.193-0.52 0.153-1.006 0.388-1.458 0.704v0l-0.79 19.224c-0.012 0.3-0.086 0.504-0.223 0.612-0.138 0.115-0.531 0.176-1.178 0.185-0.654 0.008-1.751-0.017-3.29-0.076zM106.376 27.35v0c-1.973 0.003-3.5-0.294-4.581-0.893-1.088-0.598-1.849-1.49-2.285-2.676-0.442-1.186-0.664-2.682-0.667-4.489v0l-0.026-16.58c0-0.3 0.066-0.51 0.199-0.631 0.14-0.114 0.543-0.188 1.21-0.222 0.667-0.034 1.783-0.053 3.35-0.055v0l0.028 17.83c0.001 0.907 0.079 1.633 0.233 2.18 0.154 0.553 0.432 0.956 0.832 1.208 0.4 0.246 0.984 0.368 1.751 0.368v0c0.4-0.001 0.867-0.058 1.4-0.173 0.54-0.121 1.026-0.348 1.459-0.682v0l-0.032-19.84c0-0.3 0.066-0.51 0.199-0.63 0.133-0.114 0.516-0.187 1.15-0.222 0.633-0.034 1.703-0.053 3.21-0.055v0l0.037 23.7c-0.906 0.501-2.025 0.937-3.358 1.305-1.333 0.369-2.702 0.554-4.109 0.557zM125.269 26.79v0c-1.232 0.06-2.325-0.043-3.279-0.31-0.948-0.274-1.753-0.845-2.416-1.714-0.664-0.875-1.191-2.114-1.583-3.717-0.399-1.602-0.663-3.722-0.792-6.359v0c-0.147-3.003 0.002-5.417 0.447-7.24 0.451-1.831 1.094-3.227 1.928-4.19 0.841-0.956 1.78-1.609 2.818-1.959 1.037-0.358 2.072-0.562 3.103-0.613v0c1.205-0.059 2.208 0.112 3.009 0.514 0.807 0.394 1.227 0.941 1.262 1.64v0c0.015 0.3-0.001 0.667-0.046 1.104-0.045 0.436-0.139 0.911-0.281 1.425v0c-0.41-0.187-0.928-0.348-1.556-0.484-0.621-0.137-1.251-0.189-1.89-0.158v0c-0.533 0.026-1.061 0.152-1.583 0.378-0.523 0.226-0.985 0.669-1.387 1.329-0.409 0.654-0.715 1.62-0.92 2.898-0.204 1.285-0.254 2.993-0.15 5.124v0c0.08 1.638 0.224 3.003 0.431 4.093 0.201 1.098 0.486 1.945 0.855 2.542 0.363 0.603 0.808 1.025 1.333 1.266 0.532 0.241 1.165 0.344 1.898 0.308v0c0.732-0.036 1.43-0.17 2.092-0.403 0.656-0.232 1.177-0.491 1.564-0.777v0c0.191 0.491 0.329 0.928 0.415 1.311 0.085 0.376 0.137 0.751 0.155 1.124v0c0.036 0.732-0.45 1.374-1.458 1.924-1.014 0.55-2.337 0.865-3.968 0.944zM141.17 25.605v0c-1.434 0.127-2.526-0.071-3.275-0.593-0.748-0.516-1.282-1.322-1.6-2.419-0.311-1.097-0.532-2.376-0.661-3.836v0l-1.265-14.284-3.297 0.292c-0.103-1.162-0.162-2.02-0.178-2.575-0.015-0.547 0.046-0.911 0.185-1.09 0.131-0.179 0.346-0.282 0.645-0.308v0l2.301-0.204-0.664-7.491c-0.044-0.498 0.048-0.858 0.276-1.078 0.235-0.222 0.675-0.388 1.321-0.499 0.64-0.104 1.578-0.21 2.813-0.319v0l0.796 8.985 4.791-0.425c0.103 1.162 0.162 2.02 0.178 2.575 0.015 0.547-0.03 0.91-0.135 1.086-0.098 0.176-0.297 0.277-0.595 0.303v0l-3.895 0.345 1.261 14.235c0.053 0.598 0.126 1.16 0.22 1.687 0.1 0.527 0.271 0.94 0.511 1.24 0.247 0.293 0.636 0.416 1.167 0.368v0c0.564-0.05 1.051-0.15 1.459-0.3 0.408-0.157 0.85-0.373 1.328-0.65v0c0.09 0.26 0.184 0.569 0.283 0.929 0.099 0.359 0.169 0.775 0.211 1.246v0c0.059 0.664-0.129 1.189-0.563 1.576-0.434 0.393-0.981 0.679-1.641 0.858-0.654 0.172-1.313 0.287-1.977 0.346zM149.043 24.308v0l-2.663-22.845c-0.081-0.695-0.012-1.2 0.206-1.514 0.219-0.307 0.657-0.526 1.313-0.656 0.657-0.124 1.614-0.259 2.872-0.406v0l2.796 23.988c0.035 0.298-0.008 0.511-0.127 0.639-0.119 0.135-0.497 0.256-1.135 0.364-0.645 0.109-1.732 0.252-3.262 0.43zM147.984-3.869v0c-0.728 0.085-1.32-0.098-1.776-0.548-0.462-0.45-0.752-1.325-0.87-2.627v0c-0.116-0.993 0-1.812 0.348-2.456 0.347-0.651 0.951-1.027 1.812-1.128v0c0.861-0.1 1.478 0.066 1.85 0.499 0.365 0.427 0.615 1.22 0.751 2.38v0c0.099 1.136-0.02 2.043-0.358 2.719-0.344 0.678-0.93 1.065-1.757 1.161zM165.322 22.508v0c-1.285 0.2-2.438 0.22-3.462 0.062-1.024-0.165-1.935-0.641-2.731-1.428-0.805-0.793-1.494-2.015-2.068-3.666-0.58-1.651-1.086-3.862-1.516-6.636v0c-0.702-4.519-0.483-7.906 0.658-10.161 1.133-2.261 2.988-3.591 5.564-3.991v0c1.752-0.272 3.254-0.141 4.503 0.393 1.244 0.535 2.283 1.686 3.117 3.453 0.833 1.76 1.511 4.323 2.034 7.689v0c0.723 4.657 0.556 8.097-0.502 10.319-1.057 2.229-2.923 3.551-5.597 3.966zM164.877 18.671v0c0.593-0.092 1.077-0.403 1.454-0.935 0.37-0.53 0.594-1.475 0.673-2.836 0.078-1.368-0.081-3.324-0.476-5.867v0c-0.395-2.543-0.791-4.441-1.188-5.695-0.397-1.254-0.847-2.064-1.35-2.432-0.495-0.362-1.088-0.489-1.779-0.381v0c-0.626 0.097-1.143 0.414-1.553 0.95-0.402 0.541-0.635 1.492-0.701 2.851-0.059 1.358 0.107 3.293 0.497 5.802v0c0.308 1.983 0.623 3.573 0.943 4.772 0.322 1.205 0.654 2.084 0.997 2.638 0.342 0.554 0.717 0.901 1.123 1.04 0.413 0.138 0.866 0.169 1.36 0.093zM177.184 19.985v0l-4.772-23.367c0.567-0.422 1.256-0.845 2.068-1.27 0.819-0.419 1.696-0.809 2.629-1.169 0.932-0.367 1.823-0.638 2.672-0.811v0c1.737-0.355 3.148-0.428 4.231-0.221 1.077 0.209 1.944 0.739 2.601 1.591 0.651 0.854 1.14 2.084 1.468 3.691v0l3.61 17.676c0.06 0.294 0.026 0.512-0.102 0.653-0.12 0.147-0.496 0.302-1.129 0.466-0.633 0.163-1.701 0.398-3.204 0.705v0l-3.509-17.186c-0.3-1.47-0.667-2.466-1.101-2.99-0.435-0.53-1.175-0.689-2.22-0.475v0c-0.457 0.093-0.96 0.264-1.508 0.512-0.542 0.247-1.017 0.551-1.426 0.913v0l3.979 19.488c0.06 0.294 0.036 0.51-0.071 0.648-0.107 0.144-0.467 0.296-1.081 0.455-0.614 0.159-1.659 0.39-3.135 0.691zM201.825 14.966v0c-1.685 0.432-3.139 0.588-4.361 0.468-1.22-0.114-1.946-0.623-2.177-1.526v0c-0.093-0.362-0.137-0.774-0.132-1.237-0.003-0.467 0.079-0.98 0.246-1.539v0c0.784 0.212 1.588 0.315 2.412 0.31 0.825-0.005 1.657-0.115 2.496-0.33v0c1.137-0.292 1.945-0.747 2.427-1.366 0.473-0.624 0.602-1.355 0.387-2.195v0c-0.142-0.555-0.399-1.085-0.769-1.589-0.372-0.51-0.975-0.985-1.811-1.425v0l-5.585-3.016c-1.265-0.639-2.198-1.35-2.797-2.132-0.598-0.776-0.997-1.551-1.196-2.326v0c-0.292-1.137-0.275-2.211 0.051-3.224 0.332-1.014 1.024-1.925 2.076-2.731 1.046-0.805 2.509-1.449 4.388-1.931v0c1.685-0.432 3.006-0.596 3.963-0.49 0.955 0.099 1.633 0.328 2.034 0.686 0.403 0.365 0.65 0.724 0.742 1.079v0c0.199 0.775 0.083 1.599-0.347 2.474v0c-0.82-0.244-1.619-0.369-2.398-0.376-0.779-0.007-1.605 0.102-2.477 0.326v0c-1.033 0.265-1.795 0.65-2.285 1.154-0.495 0.512-0.655 1.108-0.481 1.786v0c0.091 0.355 0.295 0.709 0.613 1.061 0.316 0.346 0.932 0.762 1.848 1.249v0l5.17 2.607c1.268 0.783 2.217 1.558 2.847 2.326 0.624 0.769 1.094 1.77 1.411 3.004v0c0.555 2.163 0.266 4.03-0.866 5.6-1.134 1.564-2.943 2.665-5.429 3.303z" opacity="1" transform="matrix(1,0,0,1,0,0)" fill="#c5fcf3" class="wordmark-text-0" data-fill-palette-color="quaternary" id="text-0"></path></svg></g></svg></g><g transform="matrix(1,0,0,1,61.26592,60.58446909757373)"><svg viewBox="0 0 82.26816000000001 8.571023521594684" height="8.571023521594684" width="82.26816000000001"><g transform="matrix(1,0,0,1,0,0)"><svg width="82.26816000000001" viewBox="2.83 -37.55 470.28000000000003 49" height="8.571023521594684" data-palette-color="#c5fcf3"><path d="M32.08-17.5L32.08-8.91Q32.08-8.01 31.87-7.01 31.67-6.01 31.23-5.02 30.79-4.03 30.09-3.13 29.39-2.22 28.41-1.53 27.42-0.83 26.12-0.42 24.83 0 23.19 0L23.19 0 11.74 0Q10.84 0 9.84-0.21 8.84-0.42 7.85-0.85 6.86-1.29 5.96-1.99 5.05-2.69 4.36-3.67 3.66-4.66 3.25-5.97 2.83-7.28 2.83-8.91L2.83-8.91 2.83-37.55 9.18-37.55 9.18-8.91Q9.18-7.74 9.91-7.04 10.64-6.35 11.74-6.35L11.74-6.35 23.19-6.35Q24.39-6.35 25.06-7.06 25.73-7.76 25.73-8.91L25.73-8.91 25.73-17.5Q25.73-18.7 25.02-19.37 24.32-20.04 23.19-20.04L23.19-20.04 11.74-20.04 11.74-26.39 23.19-26.39Q24.1-26.39 25.1-26.18 26.1-25.98 27.09-25.54 28.08-25.1 28.98-24.4 29.88-23.71 30.57-22.72 31.25-21.73 31.67-20.43 32.08-19.14 32.08-17.5L32.08-17.5ZM66.35-26.39L66.35-3.2Q66.35-2.51 66.11-1.93 65.87-1.34 65.44-0.92 65.01-0.49 64.44-0.24 63.86 0 63.21 0L63.21 0 48.85 0Q47.68 0 46.35-0.27 45.02-0.54 43.72-1.14 42.43-1.73 41.22-2.65 40.01-3.56 39.11-4.87 38.21-6.18 37.66-7.89 37.11-9.59 37.11-11.74L37.11-11.74 37.11-26.39 43.45-26.39 43.45-11.74Q43.45-10.5 43.88-9.51 44.31-8.52 45.04-7.81 45.77-7.1 46.76-6.73 47.75-6.35 48.9-6.35L48.9-6.35 60.01-6.35 60.01-26.39 66.35-26.39ZM78.75-37.55L78.75-31.81 72.41-31.81 72.41-37.55 78.75-37.55ZM78.75-26.39L78.75 0 72.41 0 72.41-26.39 78.75-26.39ZM96.43-6.35L96.43 0 93.6 0Q92.23 0 90.68-0.46 89.13-0.93 87.79-1.99 86.44-3.05 85.56-4.75 84.68-6.45 84.68-8.91L84.68-8.91 84.68-37.55 91.03-37.55 91.03-8.91Q91.03-7.74 91.76-7.04 92.5-6.35 93.6-6.35L93.6-6.35 96.43-6.35ZM129.46-37.55L129.46-8.91Q129.46-7.28 129.04-5.97 128.63-4.66 127.94-3.67 127.26-2.69 126.36-1.99 125.45-1.29 124.47-0.85 123.48-0.42 122.46-0.21 121.45 0 120.55 0L120.55 0 109.1 0Q107.46 0 106.17-0.42 104.87-0.83 103.88-1.53 102.9-2.22 102.2-3.13 101.5-4.03 101.06-5.02 100.62-6.01 100.42-7.02 100.21-8.03 100.21-8.91L100.21-8.91 100.21-17.5Q100.21-19.95 101.1-21.64 101.99-23.34 103.32-24.4 104.65-25.46 106.22-25.93 107.78-26.39 109.1-26.39L109.1-26.39 120.55-26.39 120.55-20.04 109.15-20.04Q107.88-20.04 107.22-19.4 106.56-18.75 106.56-17.5L106.56-17.5 106.56-8.96Q106.56-7.67 107.2-7.01 107.85-6.35 109.1-6.35L109.1-6.35 120.55-6.35Q121.84-6.35 122.48-7.01 123.11-7.67 123.11-8.91L123.11-8.91 123.11-37.55 129.46-37.55ZM141.96-37.55L141.96-31.81 135.61-31.81 135.61-37.55 141.96-37.55ZM141.96-26.39L141.96 0 135.61 0 135.61-26.39 141.96-26.39ZM177.28-14.65L177.28 0 170.93 0 170.93-14.65Q170.93-15.89 170.51-16.88 170.08-17.87 169.35-18.58 168.61-19.29 167.62-19.67 166.64-20.04 165.49-20.04L165.49-20.04 154.38-20.04 154.38 0 148.03 0 148.03-23.24Q148.03-23.9 148.28-24.48 148.52-25.05 148.96-25.48 149.4-25.9 149.99-26.15 150.57-26.39 151.23-26.39L151.23-26.39 165.54-26.39Q166.73-26.39 168.06-26.12 169.39-25.85 170.7-25.26 172.01-24.66 173.19-23.74 174.37-22.83 175.29-21.52 176.21-20.21 176.74-18.51 177.28-16.8 177.28-14.65L177.28-14.65ZM211.55-17.5L211.55 2.54Q211.55 4.17 211.14 5.48 210.72 6.79 210.04 7.78 209.36 8.76 208.45 9.46 207.55 10.16 206.56 10.6 205.57 11.04 204.56 11.24 203.55 11.45 202.64 11.45L202.64 11.45 191.19 11.45 191.19 5.1 202.64 5.1Q203.94 5.1 204.57 4.44 205.21 3.78 205.21 2.54L205.21 2.54 205.21-17.5Q205.21-18.75 204.57-19.4 203.94-20.04 202.64-20.04L202.64-20.04 191.19-20.04Q190.02-20.04 189.34-19.32 188.65-18.6 188.65-17.5L188.65-17.5 188.65-8.91Q188.65-7.67 189.31-7.01 189.97-6.35 191.24-6.35L191.24-6.35 202.64-6.35 202.64 0 191.19 0Q190.29 0 189.29-0.21 188.29-0.42 187.3-0.85 186.31-1.29 185.41-1.99 184.5-2.69 183.82-3.67 183.14-4.66 182.72-5.97 182.31-7.28 182.31-8.91L182.31-8.91 182.31-17.5Q182.31-18.41 182.51-19.41 182.72-20.41 183.16-21.4 183.6-22.39 184.3-23.29 184.99-24.19 185.98-24.88 186.97-25.56 188.26-25.98 189.56-26.39 191.19-26.39L191.19-26.39 202.64-26.39Q203.55-26.39 204.56-26.18 205.57-25.98 206.56-25.54 207.55-25.1 208.45-24.4 209.36-23.71 210.04-22.72 210.72-21.73 211.14-20.43 211.55-19.14 211.55-17.5L211.55-17.5ZM259.18-6.35L259.18 0 241.97 0Q240.65 0 239.09-0.46 237.53-0.93 236.2-1.99 234.87-3.05 233.97-4.75 233.08-6.45 233.08-8.91L233.08-8.91 233.08-17.5Q233.08-18.41 233.29-19.41 233.5-20.41 233.94-21.4 234.38-22.39 235.07-23.29 235.77-24.19 236.76-24.88 237.75-25.56 239.04-25.98 240.33-26.39 241.97-26.39L241.97-26.39 259.18-26.39 259.18-20.04 241.97-20.04Q240.72-20.04 240.08-19.41 239.43-18.77 239.43-17.46L239.43-17.46 239.43-8.91Q239.43-7.67 240.09-7.01 240.75-6.35 242.02-6.35L242.02-6.35 259.18-6.35ZM292.94-17.5L292.94-8.91Q292.94-7.28 292.53-5.97 292.11-4.66 291.43-3.67 290.75-2.69 289.84-1.99 288.94-1.29 287.95-0.85 286.96-0.42 285.95-0.21 284.94 0 284.03 0L284.03 0 272.58 0Q271.26 0 269.7-0.46 268.14-0.93 266.81-1.99 265.48-3.05 264.59-4.75 263.7-6.45 263.7-8.91L263.7-8.91 263.7-17.5Q263.7-19.95 264.59-21.64 265.48-23.34 266.81-24.4 268.14-25.46 269.7-25.93 271.26-26.39 272.58-26.39L272.58-26.39 284.03-26.39Q286.47-26.39 288.18-25.51 289.89-24.63 290.94-23.3 291.99-21.97 292.47-20.41 292.94-18.85 292.94-17.5L292.94-17.5ZM286.6-8.91L286.6-17.46Q286.6-18.77 285.94-19.41 285.28-20.04 284.03-20.04L284.03-20.04 272.63-20.04Q271.36-20.04 270.7-19.4 270.04-18.75 270.04-17.5L270.04-17.5 270.04-8.91Q270.04-7.67 270.7-7.01 271.36-6.35 272.63-6.35L272.63-6.35 284.03-6.35Q285.33-6.35 285.96-7.01 286.6-7.67 286.6-8.91L286.6-8.91ZM321.9-17.5L321.9 0 315.55 0 315.55-17.5Q315.55-18.75 314.89-19.4 314.23-20.04 312.94-20.04L312.94-20.04 304.68-20.04 304.68 0 298.34 0 298.34-23.24Q298.34-23.9 298.58-24.48 298.83-25.05 299.26-25.48 299.7-25.9 300.29-26.15 300.88-26.39 301.54-26.39L301.54-26.39 312.99-26.39Q314.3-26.39 315.82-25.93 317.33-25.46 318.7-24.44L318.7-24.44 318.7-26.39 327.29-26.39Q328.2-26.39 329.2-26.18 330.2-25.98 331.19-25.54 332.17-25.1 333.08-24.4 333.98-23.71 334.66-22.72 335.35-21.73 335.76-20.43 336.18-19.14 336.18-17.5L336.18-17.5 336.18 0 329.83 0 329.83-17.5Q329.83-18.75 329.21-19.4 328.59-20.04 327.29-20.04L327.29-20.04 321.58-20.04Q321.9-18.87 321.9-17.5L321.9-17.5ZM371.11-17.5L371.11-8.91Q371.11-7.28 370.7-5.97 370.28-4.66 369.6-3.67 368.92-2.69 368.01-1.99 367.11-1.29 366.12-0.85 365.13-0.42 364.13-0.21 363.13 0 362.23 0L362.23 0 350.78 0 350.78-6.35 362.23-6.35Q363.5-6.35 364.13-7.01 364.76-7.67 364.76-8.91L364.76-8.91 364.76-17.46Q364.76-18.77 364.12-19.41 363.47-20.04 362.23-20.04L362.23-20.04 350.82-20.04Q349.53-20.04 348.87-19.4 348.21-18.75 348.21-17.5L348.21-17.5 348.21 8.25 341.86 8.25 341.86-17.5Q341.86-19.14 342.28-20.43 342.69-21.73 343.39-22.72 344.09-23.71 344.99-24.4 345.89-25.1 346.88-25.54 347.87-25.98 348.88-26.18 349.9-26.39 350.78-26.39L350.78-26.39 362.23-26.39Q363.86-26.39 365.16-25.98 366.45-25.56 367.44-24.88 368.43-24.19 369.12-23.29 369.82-22.39 370.26-21.4 370.7-20.41 370.91-19.41 371.11-18.41 371.11-17.5L371.11-17.5ZM403.78-17.65L403.78-8.74Q403.78-7.42 403.31-5.9 402.85-4.37 401.81-3.06 400.77-1.76 399.1-0.88 397.43 0 395.04 0L395.04 0 383.59 0Q382.27 0 380.74-0.46 379.22-0.93 377.91-1.97 376.6-3 375.72-4.68 374.85-6.35 374.85-8.74L374.85-8.74Q374.85-10.06 375.31-11.6 375.77-13.13 376.81-14.44 377.85-15.75 379.52-16.63 381.19-17.5 383.59-17.5L383.59-17.5 395.04-17.5 395.04-11.45 383.59-11.45Q382.29-11.45 381.58-10.66 380.88-9.86 380.88-8.69L380.88-8.69Q380.88-7.45 381.69-6.75 382.51-6.05 383.63-6.05L383.63-6.05 395.04-6.05Q396.33-6.05 397.04-6.84 397.75-7.62 397.75-8.79L397.75-8.79 397.75-17.65Q397.75-18.9 396.98-19.63 396.21-20.36 395.04-20.36L395.04-20.36 381.1-20.36 381.1-26.39 395.04-26.39Q396.35-26.39 397.88-25.93 399.41-25.46 400.71-24.43 402.02-23.39 402.9-21.72 403.78-20.04 403.78-17.65L403.78-17.65ZM438.44-14.65L438.44 0 432.09 0 432.09-14.65Q432.09-15.89 431.67-16.88 431.24-17.87 430.51-18.58 429.77-19.29 428.79-19.67 427.8-20.04 426.65-20.04L426.65-20.04 415.54-20.04 415.54 0 409.19 0 409.19-23.24Q409.19-23.9 409.44-24.48 409.68-25.05 410.12-25.48 410.56-25.9 411.15-26.15 411.73-26.39 412.39-26.39L412.39-26.39 426.7-26.39Q427.89-26.39 429.23-26.12 430.56-25.85 431.86-25.26 433.17-24.66 434.35-23.74 435.54-22.83 436.45-21.52 437.37-20.21 437.9-18.51 438.44-16.8 438.44-14.65L438.44-14.65ZM473.11-26.39L473.11 2.54Q473.11 4.17 472.69 5.48 472.28 6.79 471.59 7.78 470.91 8.76 470.01 9.46 469.1 10.16 468.11 10.6 467.13 11.04 466.12 11.24 465.12 11.45 464.22 11.45L464.22 11.45 452.77 11.45 452.77 5.1 464.22 5.1Q465.49 5.1 466.12 4.44 466.76 3.78 466.76 2.54L466.76 2.54 466.76-26.39 473.11-26.39ZM464.22-6.35L464.22 0 452.77 0Q451.4 0 449.85-0.46 448.3-0.93 446.96-1.99 445.62-3.05 444.74-4.75 443.86-6.45 443.86-8.91L443.86-8.91 443.86-26.39 450.21-26.39 450.21-8.91Q450.21-7.67 450.87-7.01 451.53-6.35 452.82-6.35L452.82-6.35 464.22-6.35Z" opacity="1" transform="matrix(1,0,0,1,0,0)" fill="#c5fcf3" class="slogan-text-1" data-fill-palette-color="quaternary" id="text-1"></path></svg></g></svg></g></svg></g></svg></g><g transform="matrix(1,0,0,1,67.45632569932084,0)"><svg viewBox="0 0 69.88734860135833 69.15549261916841" height="69.15549261916841" width="69.88734860135833"><g><svg xmlns="http://www.w3.org/2000/svg" xmlns:xlink="http://www.w3.org/1999/xlink" version="1.1" x="0" y="0" viewBox="0.103 0.803 99.88600000000001 98.84" enable-background="new 0 0 100 100" xml:space="preserve" height="69.15549261916841" width="69.88734860135833" class="icon-icon-0" data-fill-palette-color="quaternary" id="icon-0"><path d="M88.5 64.15L88.381 23h-0.107L49.829 0.803 11.631 23h-0.106l0.183 41.104L12 66.939v0.049l-0.293-2.969L0.103 70.68l50.09 28.963 49.796-28.92L88.5 64.15zM21.015 68.875l-6.403-3.697 0.021-7.363 6.403 3.697L21.015 68.875zM21.057 54.154l-6.403-3.697 0.021-7.358 6.403 3.697L21.057 54.154zM21.099 39.433l-6.403-3.697 0.021-7.358 6.403 3.697L21.099 39.433zM85.293 65.174l-6.404 3.695-0.02-7.357 6.402-3.697L85.293 65.174zM85.25 50.458l-6.402 3.697-0.021-7.363 6.404-3.697L85.25 50.458zM85.188 28.378l0.021 7.358-6.402 3.697-0.021-7.358L85.188 28.378zM72.439 57.855l-6.404 3.695-0.02-7.363 6.402-3.697L72.439 57.855zM53.225 68.947l-0.02-7.363 6.406-3.699 0.021 7.363L53.225 68.947zM59.654 72.605l0.02 7.357-6.406 3.701-0.021-7.359L59.654 72.605zM53.184 54.227l-0.021-7.358 6.408-3.7 0.021 7.358L53.184 54.227zM72.377 35.775l0.021 7.358-6.404 3.697-0.021-7.357L72.377 35.775zM40.334 43.169l6.408 3.699-0.021 7.358-6.408-3.7L40.334 43.169zM40.292 57.891l6.408 3.699-0.021 7.357-6.408-3.699L40.292 57.891zM40.25 72.605l6.409 3.699-0.021 7.365-6.408-3.701L40.25 72.605zM27.528 35.775l6.403 3.697L33.91 46.83l-6.403-3.697L27.528 35.775zM27.486 50.496l6.403 3.697-0.021 7.357-6.404-3.695L27.486 50.496zM33.833 69l0.003-0.047-0.018 7.283-6.396-3.706-0.004-0.009 0.1-7.365L34 68.852v0.055L33.909 69H33.833zM66.088 79.949L66.057 68.91l6.404-3.697 0.031 11.039L66.088 79.949z" fill="#c5fcf3" data-fill-palette-color="quaternary"></path></svg></g></svg></g><g></g></svg></g></svg></g></svg></g><defs></defs></svg><rect width="512" height="320" fill="none" stroke="none" visibility="hidden"></rect></g></svg></g></svg>