<svg xmlns="http://www.w3.org/2000/svg" version="1.1" xmlns:xlink="http://www.w3.org/1999/xlink" xmlns:svgjs="http://svgjs.dev/svgjs" width="2000" height="262" viewBox="0 0 2000 262"><g transform="matrix(1,0,0,1,-1.2121212121212466,1.179347497522059)"><svg viewBox="0 0 396 52" data-background-color="#fefee2" preserveAspectRatio="xMidYMid meet" height="262" width="2000" xmlns="http://www.w3.org/2000/svg" xmlns:xlink="http://www.w3.org/1999/xlink"><g id="tight-bounds" transform="matrix(1,0,0,1,0.2400000000000091,-0.234068968973844)"><svg viewBox="0 0 395.52 52.468137937947674" height="52.468137937947674" width="395.52"><g><svg viewBox="0 0 454.1473867371074 60.24541801041925" height="52.468137937947674" width="395.52"><g><svg viewBox="0 0 395.52 60.24541801041925" height="60.24541801041925" width="395.52"><g id="textblocktransform"><svg viewBox="0 0 395.52 60.24541801041925" height="60.24541801041925" width="395.52" id="textblock"><g><svg viewBox="0 0 395.52 60.24541801041925" height="60.24541801041925" width="395.52"><g transform="matrix(1,0,0,1,0,0)"><svg width="395.52" viewBox="3.25 -35.01 295.21 44.97" height="60.24541801041925" data-palette-color="#6d92d2"><path d="M10.25-13.99L10.25 0 3.25 0 3.25-35.01 10.25-35.01 10.25-21 24.24-21 24.24-35.01 31.25-35.01 31.25 0 24.24 0 24.24-13.99 10.25-13.99ZM61.91-13.31L61.91-13.31Q61.91-10.38 60.86-7.85 59.81-5.32 58.01-3.48 56.2-1.64 53.77-0.57 51.34 0.49 48.56 0.49L48.56 0.49Q45.8 0.49 43.37-0.57 40.94-1.64 39.12-3.48 37.3-5.32 36.25-7.85 35.2-10.38 35.2-13.31L35.2-13.31Q35.2-16.28 36.25-18.82 37.3-21.36 39.12-23.21 40.94-25.05 43.37-26.1 45.8-27.15 48.56-27.15L48.56-27.15Q51.34-27.15 53.77-26.16 56.2-25.17 58.01-23.35 59.81-21.53 60.86-18.98 61.91-16.43 61.91-13.31ZM55.2-13.31L55.2-13.31Q55.2-14.92 54.67-16.22 54.15-17.53 53.24-18.47 52.34-19.41 51.13-19.91 49.92-20.41 48.56-20.41L48.56-20.41Q47.19-20.41 45.98-19.91 44.77-19.41 43.88-18.47 42.99-17.53 42.48-16.22 41.97-14.92 41.97-13.31L41.97-13.31Q41.97-11.79 42.48-10.5 42.99-9.2 43.88-8.25 44.77-7.3 45.98-6.75 47.19-6.2 48.56-6.2L48.56-6.2Q49.92-6.2 51.13-6.71 52.34-7.23 53.24-8.15 54.15-9.08 54.67-10.4 55.2-11.72 55.2-13.31ZM98.85-16.6L98.85 0 92.21 0 92.21-16.6Q92.21-17.29 91.95-17.9 91.69-18.51 91.23-18.97 90.77-19.43 90.16-19.69 89.55-19.95 88.86-19.95L88.86-19.95Q88.18-19.95 87.58-19.69 86.98-19.43 86.53-18.97 86.08-18.51 85.82-17.9 85.57-17.29 85.57-16.6L85.57-16.6 85.57 0 78.9 0 78.9-16.6Q78.9-17.29 78.64-17.9 78.39-18.51 77.92-18.97 77.46-19.43 76.85-19.69 76.24-19.95 75.56-19.95L75.56-19.95Q74.87-19.95 74.27-19.69 73.68-19.43 73.22-18.97 72.77-18.51 72.52-17.9 72.26-17.29 72.26-16.6L72.26-16.6 72.26 0 65.6 0 65.6-26.15 67.21-26.15 69.01-24.15Q70.41-25.32 72.08-25.96 73.75-26.61 75.56-26.61L75.56-26.61Q77.39-26.61 79.13-25.93 80.88-25.24 82.2-23.56L82.2-23.56Q82.81-24.39 83.59-24.98 84.37-25.56 85.24-25.93 86.1-26.29 87.03-26.45 87.96-26.61 88.86-26.61L88.86-26.61Q90.94-26.61 92.76-25.83 94.58-25.05 95.93-23.69 97.29-22.34 98.07-20.51 98.85-18.68 98.85-16.6L98.85-16.6ZM126.6-21.46L114.1-6.4Q114.49-6.27 114.89-6.24 115.28-6.2 115.67-6.2L115.67-6.2Q116.64-6.2 117.55-6.47 118.45-6.74 119.24-7.24 120.04-7.74 120.66-8.46 121.28-9.18 121.67-10.06L121.67-10.06 126.56-5.15Q125.63-3.83 124.42-2.78 123.21-1.73 121.81-1 120.4-0.27 118.85 0.11 117.3 0.49 115.67 0.49L115.67 0.49Q112.91 0.49 110.48-0.54 108.05-1.56 106.23-3.39 104.41-5.22 103.36-7.75 102.31-10.28 102.31-13.31L102.31-13.31Q102.31-16.41 103.36-18.97 104.41-21.53 106.23-23.34 108.05-25.15 110.48-26.15 112.91-27.15 115.67-27.15L115.67-27.15Q117.3-27.15 118.86-26.76 120.43-26.37 121.83-25.63 123.23-24.9 124.46-23.84 125.68-22.78 126.6-21.46L126.6-21.46ZM109.76-9.84L117.52-20.14Q117.06-20.31 116.61-20.36 116.15-20.41 115.67-20.41L115.67-20.41Q114.3-20.41 113.09-19.91 111.88-19.41 110.99-18.48 110.1-17.55 109.59-16.25 109.07-14.94 109.07-13.31L109.07-13.31Q109.07-12.94 109.11-12.48 109.15-12.01 109.23-11.54 109.32-11.06 109.44-10.62 109.56-10.18 109.76-9.84L109.76-9.84ZM151.65-35.01L151.65 0 144.64 0 144.64-35.01 151.65-35.01ZM190.68-16.6L190.68 0 184.04 0 184.04-16.6Q184.04-17.29 183.79-17.9 183.53-18.51 183.07-18.97 182.6-19.43 181.99-19.69 181.38-19.95 180.7-19.95L180.7-19.95Q180.01-19.95 179.42-19.69 178.82-19.43 178.37-18.97 177.91-18.51 177.66-17.9 177.4-17.29 177.4-16.6L177.4-16.6 177.4 0 170.74 0 170.74-16.6Q170.74-17.29 170.48-17.9 170.22-18.51 169.76-18.97 169.3-19.43 168.69-19.69 168.08-19.95 167.39-19.95L167.39-19.95Q166.71-19.95 166.11-19.69 165.51-19.43 165.06-18.97 164.61-18.51 164.35-17.9 164.1-17.29 164.1-16.6L164.1-16.6 164.1 0 157.43 0 157.43-26.15 159.04-26.15 160.85-24.15Q162.24-25.32 163.91-25.96 165.59-26.61 167.39-26.61L167.39-26.61Q169.22-26.61 170.97-25.93 172.71-25.24 174.03-23.56L174.03-23.56Q174.64-24.39 175.42-24.98 176.21-25.56 177.07-25.93 177.94-26.29 178.87-26.45 179.79-26.61 180.7-26.61L180.7-26.61Q182.77-26.61 184.59-25.83 186.41-25.05 187.77-23.69 189.12-22.34 189.9-20.51 190.68-18.68 190.68-16.6L190.68-16.6ZM202.25-1.76L202.25 9.96 195.54 9.96 195.54-26.15 197.15-26.15 199.81-23Q200.71-23.85 201.79-24.61 202.86-25.37 204.02-25.92 205.18-26.46 206.43-26.78 207.67-27.1 208.94-27.1L208.94-27.1Q211.7-27.1 214.13-26.11 216.56-25.12 218.38-23.32 220.2-21.51 221.25-18.96 222.3-16.41 222.3-13.31L222.3-13.31Q222.3-10.08 221.25-7.51 220.2-4.93 218.38-3.14 216.56-1.34 214.13-0.39 211.7 0.56 208.94 0.56L208.94 0.56Q208.06 0.56 207.2 0.37 206.33 0.17 205.49-0.16 204.65-0.49 203.83-0.9 203.01-1.32 202.25-1.76L202.25-1.76ZM215.61-13.31L215.61-13.31Q215.61-14.97 215.08-16.28 214.56-17.6 213.65-18.52 212.75-19.43 211.53-19.92 210.31-20.41 208.94-20.41L208.94-20.41Q207.58-20.41 206.37-19.92 205.16-19.43 204.25-18.52 203.35-17.6 202.83-16.28 202.3-14.97 202.3-13.31L202.3-13.31Q202.3-11.72 202.83-10.4 203.35-9.08 204.25-8.15 205.16-7.23 206.37-6.71 207.58-6.2 208.94-6.2L208.94-6.2Q210.31-6.2 211.53-6.71 212.75-7.23 213.65-8.15 214.56-9.08 215.08-10.4 215.61-11.72 215.61-13.31ZM232.65-14.4L232.65 0 225.98 0 225.98-26.15 227.59-26.15 229.79-23.05Q231.4-24.51 233.45-25.31 235.5-26.1 237.7-26.1L237.7-26.1 243.58-26.1 243.58-19.46 237.7-19.46Q236.65-19.46 235.72-19.07 234.79-18.68 234.11-17.99 233.43-17.31 233.04-16.38 232.65-15.45 232.65-14.4L232.65-14.4ZM271.46-13.31L271.46-13.31Q271.46-10.38 270.41-7.85 269.36-5.32 267.56-3.48 265.75-1.64 263.32-0.57 260.89 0.49 258.11 0.49L258.11 0.49Q255.35 0.49 252.92-0.57 250.49-1.64 248.67-3.48 246.85-5.32 245.8-7.85 244.75-10.38 244.75-13.31L244.75-13.31Q244.75-16.28 245.8-18.82 246.85-21.36 248.67-23.21 250.49-25.05 252.92-26.1 255.35-27.15 258.11-27.15L258.11-27.15Q260.89-27.15 263.32-26.16 265.75-25.17 267.56-23.35 269.36-21.53 270.41-18.98 271.46-16.43 271.46-13.31ZM264.75-13.31L264.75-13.31Q264.75-14.92 264.22-16.22 263.7-17.53 262.79-18.47 261.89-19.41 260.68-19.91 259.47-20.41 258.11-20.41L258.11-20.41Q256.74-20.41 255.53-19.91 254.32-19.41 253.43-18.47 252.54-17.53 252.03-16.22 251.52-14.92 251.52-13.31L251.52-13.31Q251.52-11.79 252.03-10.5 252.54-9.2 253.43-8.25 254.32-7.3 255.53-6.75 256.74-6.2 258.11-6.2L258.11-6.2Q259.47-6.2 260.68-6.71 261.89-7.23 262.79-8.15 263.7-9.08 264.22-10.4 264.75-11.72 264.75-13.31ZM288.5 0L281.81 0 271.85-26.15 279.44-26.15 285.16-9.84 290.84-26.15 298.46-26.15 288.5 0Z" opacity="1" transform="matrix(1,0,0,1,0,0)" fill="#000000" class="wordmark-text-0" data-fill-palette-color="primary" id="text-0"></path></svg></g></svg></g></svg></g></svg></g><g transform="matrix(1,0,0,1,409.7424973022277,9.307917082609773)"><svg viewBox="0 0 44.404889434879685 41.629583845199704" height="41.629583845199704" width="44.404889434879685"><g><svg xmlns="http://www.w3.org/2000/svg" version="1.1" data-icon="home" viewBox="0 0 16 15" x="0" y="0" height="41.629583845199704" width="44.404889434879685" class="icon-icon-0" data-fill-palette-color="accent" id="icon-0"><path d="M8 0l-8 7h2v8h5v-3h2v3h5v-8h2l-8-7z" fill="#000000" data-fill-palette-color="accent"></path></svg></g></svg></g></svg></g><defs></defs></svg><rect width="395.52" height="52.468137937947674" fill="none" stroke="none" visibility="hidden"></rect></g></svg></g></svg>